
Utvandrarna.1971.DvDRiP.XViD.Optional.NordicSub.Zen_Bud.avi

Format                           : AVI
File size                        : 2.07 GiB
Duration                         : 3h 3mn
Overall bit rate                 : 1 616 Kbps

Video

Format                           : MPEG-4 Visual
Codec ID/Hint                    : XviD
Duration                         : 3h 3mn
Bit rate                         : 1 491 Kbps
Width                            : 672 pixels
Height                           : 576 pixels
Display aspect ratio             : 1.659
Stream size                      : 1.91 GiB (92%)
Writing library                  : XviD 1.1.2 (UTC 2006-11-01)

Audio

Format                           : MPEG Audio
Codec ID/Hint                    : MP3
Duration                         : 3h 3mn
Bit rate                         : 112 Kbps
Channel(s)                       : 2 channels
Sampling rate                    : 48.0 KHz
Stream size                      : 147 MiB (7%)

 
http://sv.wikipedia.org/wiki/Utvandrarna_%28film%29
 
http://www.imdb.com/title/tt0067919/

**************************************************************


Nybyggarna.1972.DvDRiP.XViD.Optional NordicSub.Zen_Bud.avi

Format                           : AVI
File size                        : 2.16 GiB
Duration                         : 3h 12mn
Overall bit rate                 : 1 609 Kbps

Video

Format                           : MPEG-4 Visual
Codec ID/Hint                    : XviD
Duration                         : 3h 12mn
Bit rate                         : 1 484 Kbps
Width                            : 672 pixels
Height                           : 576 pixels
Display aspect ratio             : 1.659
Stream size                      : 1.99 GiB (92%)
Writing library                  : XviD 1.1.2 (UTC 2006-11-01)

Audio

Format                           : MPEG Audio
Codec ID/Hint                    : MP3
Duration                         : 3h 12mn
Bit rate                         : 112 Kbps
Channel(s)                       : 2 channels
Sampling rate                    : 48.0 KHz
Stream size                      : 154 MiB (7%)

 
http://sv.wikipedia.org/wiki/Nybyggarna_%28film%29
 
http://www.imdb.com/title/tt0069035/